<?xml version="1.0" encoding="utf-8"?>
<!-- Generator: Adobe Illustrator 16.0.4, SVG Export Plug-In . SVG Version: 6.00 Build 0)  -->
<!DOCTYPE svg PUBLIC "-//W3C//DTD SVG 1.1//EN" "http://www.w3.org/Graphics/SVG/1.1/DTD/svg11.dtd">
<svg version="1.1" id="Layer_1" xmlns="http://www.w3.org/2000/svg" xmlns:xlink="http://www.w3.org/1999/xlink" x="0px" y="0px"
	 width="800px" height="220px" viewBox="0 0 800 220" enable-background="new 0 0 800 220" xml:space="preserve">
<g>
	<path fill-rule="evenodd" clip-rule="evenodd" fill="#FF6A00" d="M706.018,115.955l-89.969,52.21
		c30.013,17.398,59.975,34.795,89.975,52.2c30.002-17.405,59.986-34.791,89.977-52.194L706.018,115.955z"/>
	<path fill-rule="evenodd" clip-rule="evenodd" fill="#3CD52E" d="M706.018,11.516v104.439L796,168.171
		c0-34.813-0.006-69.608-0.006-104.427L706.018,11.516z"/>
	<path fill-rule="evenodd" clip-rule="evenodd" fill="#00BAE3" d="M706.018,115.955V11.516L616.04,63.738
		c0,34.82,0.009,69.602,0.009,104.427L706.018,115.955z"/>
	<polygon fill-rule="evenodd" clip-rule="evenodd" fill="#535251" points="616.04,63.738 596.762,156.909 686.7,104.716 
		706.018,11.516 	"/>
	<path fill-rule="evenodd" clip-rule="evenodd" fill="#535251" d="M795.994,63.744L725.365,0.365v22.388v81.993L796,168.171
		C795.998,133.375,795.994,98.545,795.994,63.744z"/>
	<path fill-rule="evenodd" clip-rule="evenodd" fill="#535251" d="M706.023,220.365l89.918-29.794l-89.934-52.188l-89.959,29.782
		C646.026,185.563,676.048,202.967,706.023,220.365z"/>
</g>
<g>
	<g>
		<path fill="#535251" d="M17.552,120.248H4.597V42.233h47.29v11.091H17.552v21.7h32.575V86.17H17.552V120.248z"/>
		<path fill="#535251" d="M99.177,65.273h12.582v40.936c0,1.929,0.018,3.617,0.054,5.064c0.035,1.445,0.098,2.724,0.187,3.83
			c0.089,1.107,0.187,2.082,0.293,2.92c0.107,0.84,0.249,1.581,0.427,2.225H99.604l-0.267-5.734c-0.427,0.895-1.165,1.761-2.213,2.6
			c-1.049,0.84-2.257,1.58-3.625,2.224c-1.369,0.643-2.817,1.16-4.345,1.554c-1.529,0.393-3.005,0.59-4.426,0.59
			c-4.23,0-7.73-0.662-10.503-1.982c-2.772-1.322-4.968-3.055-6.584-5.197c-1.618-2.145-2.746-4.555-3.386-7.234
			c-0.64-2.679-0.96-5.358-0.96-8.037V65.273h12.476v34.185c0,3.965,0.934,6.931,2.8,8.895c1.865,1.965,4.505,2.946,7.917,2.946
			c2.025,0,3.829-0.365,5.411-1.098c1.581-0.732,2.905-1.696,3.972-2.894c1.066-1.196,1.884-2.589,2.453-4.179
			c0.567-1.589,0.853-3.242,0.853-4.956V65.273z"/>
		<path fill="#535251" d="M162.835,79.419c-1.529-1.107-3.013-2-4.452-2.679c-1.439-0.678-2.817-1.206-4.132-1.581
			c-1.315-0.375-2.551-0.625-3.705-0.75c-1.156-0.125-2.213-0.188-3.173-0.188c-0.427,0-1.111,0.045-2.053,0.134
			c-0.941,0.089-1.893,0.313-2.852,0.669c-0.96,0.358-1.813,0.894-2.56,1.607c-0.746,0.715-1.119,1.697-1.119,2.947
			c0,0.929,0.346,1.768,1.039,2.518c0.693,0.75,1.591,1.42,2.692,2.009s2.337,1.135,3.705,1.634
			c1.368,0.501,2.746,0.964,4.133,1.393c2.132,0.643,4.345,1.393,6.637,2.25c2.293,0.857,4.381,1.929,6.265,3.215
			c1.884,1.286,3.43,2.858,4.639,4.715c1.208,1.857,1.812,4.09,1.812,6.698c0,2.143-0.319,4.072-0.959,5.787
			c-0.641,1.714-1.485,3.214-2.533,4.501c-1.049,1.285-2.257,2.384-3.625,3.295c-1.369,0.91-2.799,1.652-4.292,2.223
			c-1.493,0.571-2.995,0.992-4.505,1.26c-1.512,0.268-2.906,0.402-4.186,0.402c-1.635,0-3.457-0.081-5.465-0.242
			c-2.008-0.16-4.07-0.5-6.185-1.018c-2.115-0.518-4.194-1.25-6.237-2.197c-2.045-0.945-3.919-2.223-5.625-3.83l3.572-11.252
			c1.314,1.607,2.746,2.947,4.292,4.019s3.101,1.929,4.665,2.572c1.563,0.643,3.083,1.099,4.559,1.366
			c1.474,0.269,2.816,0.401,4.024,0.401c0.568,0,1.395-0.043,2.479-0.133c1.084-0.09,2.168-0.349,3.252-0.777
			s2.026-1.08,2.826-1.956c0.8-0.875,1.199-2.098,1.199-3.67c0-0.893-0.293-1.669-0.88-2.331c-0.586-0.66-1.378-1.25-2.372-1.768
			c-0.995-0.517-2.159-1-3.492-1.447c-1.333-0.446-2.729-0.884-4.186-1.312c-1.528-0.464-3.092-0.955-4.691-1.474
			c-1.6-0.517-3.146-1.106-4.639-1.768c-1.492-0.661-2.888-1.428-4.185-2.304c-1.298-0.875-2.436-1.91-3.412-3.107
			c-0.979-1.196-1.751-2.572-2.319-4.126c-0.569-1.554-0.854-3.349-0.854-5.385c0-2.929,0.685-5.393,2.053-7.394
			c1.368-2,3.093-3.625,5.172-4.876c2.079-1.25,4.327-2.152,6.744-2.706c2.417-0.553,4.691-0.831,6.824-0.831
			c1.314,0,2.781,0.036,4.398,0.107c1.617,0.072,3.306,0.286,5.065,0.643c1.759,0.357,3.536,0.893,5.331,1.607
			c1.794,0.715,3.527,1.733,5.198,3.054L162.835,79.419z"/>
		<path fill="#535251" d="M230.704,113.229c-3.342,2.786-6.896,4.858-10.663,6.215c-3.768,1.357-7.927,2.037-12.476,2.037
			c-4.372,0-8.282-0.707-11.729-2.117c-3.448-1.41-6.363-3.375-8.743-5.894c-2.382-2.519-4.204-5.537-5.465-9.055
			c-1.263-3.518-1.893-7.385-1.893-11.601c0-3.893,0.612-7.59,1.839-11.091c1.227-3.5,3.013-6.563,5.358-9.189
			s5.216-4.715,8.61-6.269c3.394-1.554,7.277-2.331,11.649-2.331c4.336,0,8.085,0.733,11.249,2.197
			c3.163,1.465,5.775,3.474,7.837,6.028c2.062,2.554,3.59,5.545,4.585,8.975s1.493,7.126,1.493,11.091
			c0,0.286-0.019,0.652-0.054,1.099c-0.035,0.447-0.106,0.884-0.213,1.312h-39.133c0.106,2.858,0.533,5.332,1.279,7.421
			c0.746,2.09,1.768,3.823,3.065,5.197c1.298,1.376,2.844,2.394,4.639,3.054c1.794,0.662,3.794,0.991,5.998,0.991
			c3.27,0,6.441-0.776,9.517-2.33c3.074-1.554,6.14-3.831,9.196-6.832L230.704,113.229z M220.627,86.17
			c-0.319-1.857-0.897-3.527-1.732-5.01c-0.836-1.482-1.84-2.741-3.013-3.777c-1.173-1.036-2.497-1.822-3.972-2.358
			c-1.476-0.536-3.012-0.804-4.611-0.804c-1.849,0-3.519,0.295-5.012,0.884s-2.817,1.42-3.972,2.492
			c-1.156,1.071-2.115,2.34-2.879,3.804c-0.766,1.465-1.343,3.054-1.733,4.769H220.627z"/>
		<path fill="#535251" d="M258.108,141.68h-12.423V80.49c0-1.321-0.045-2.928-0.133-4.822c-0.089-1.893-0.169-3.714-0.24-5.465
			l-0.106-2.732c0-0.143-0.009-0.286-0.026-0.429c-0.019-0.142-0.027-0.303-0.027-0.482v-1.286h12.85l0.053,4.608
			c2.133-2,4.559-3.491,7.277-4.474c2.72-0.982,5.394-1.474,8.024-1.474c4.158,0,7.837,0.76,11.036,2.277
			c3.198,1.519,5.891,3.563,8.077,6.135c2.186,2.572,3.847,5.564,4.984,8.975c1.138,3.412,1.706,7.011,1.706,10.797
			c0,3.822-0.533,7.501-1.599,11.038c-1.066,3.536-2.666,6.663-4.799,9.376c-2.133,2.716-4.798,4.886-7.997,6.511
			s-6.949,2.438-11.249,2.438c-2.88,0-5.644-0.482-8.291-1.447c-2.648-0.965-5.021-2.232-7.117-3.805V141.68z M258.002,93.778
			c0,2.537,0.301,4.868,0.906,6.993c0.604,2.125,1.501,3.974,2.692,5.545c1.19,1.572,2.665,2.795,4.425,3.67
			c1.76,0.875,3.776,1.312,6.052,1.312c2.416,0,4.505-0.517,6.264-1.553c1.76-1.036,3.208-2.429,4.346-4.179
			c1.137-1.75,1.98-3.769,2.532-6.055c0.551-2.286,0.826-4.679,0.826-7.18c0-2.358-0.231-4.626-0.693-6.805
			c-0.462-2.178-1.226-4.107-2.292-5.787c-1.066-1.679-2.462-3.018-4.186-4.019c-1.724-1-3.865-1.5-6.424-1.5
			c-2.631,0-4.861,0.536-6.691,1.607c-1.831,1.072-3.324,2.51-4.479,4.313c-1.155,1.804-1.991,3.885-2.506,6.242
			C258.259,88.742,258.002,91.207,258.002,93.778z"/>
		<path fill="#535251" d="M336.906,63.934c4.692,0,8.806,0.769,12.343,2.304c3.536,1.536,6.478,3.617,8.823,6.242
			s4.113,5.689,5.305,9.189c1.19,3.501,1.786,7.234,1.786,11.199c0,3.823-0.622,7.466-1.866,10.931
			c-1.244,3.465-3.065,6.51-5.465,9.135c-2.398,2.625-5.357,4.707-8.876,6.242c-3.52,1.535-7.536,2.305-12.05,2.305
			c-4.621,0-8.717-0.77-12.289-2.305s-6.566-3.607-8.983-6.215s-4.257-5.653-5.518-9.136c-1.263-3.483-1.893-7.171-1.893-11.065
			c0-3.893,0.63-7.59,1.893-11.091c1.261-3.5,3.109-6.563,5.544-9.189s5.438-4.706,9.011-6.242
			C328.243,64.702,332.321,63.934,336.906,63.934z M352.048,92.868c0-2.572-0.312-4.983-0.933-7.233
			c-0.623-2.25-1.556-4.224-2.8-5.921c-1.244-1.696-2.817-3.036-4.718-4.019c-1.902-0.982-4.15-1.474-6.744-1.474
			c-2.56,0-4.808,0.509-6.745,1.527s-3.554,2.394-4.852,4.125c-1.298,1.733-2.284,3.733-2.959,6.001
			c-0.675,2.269-1.013,4.653-1.013,7.153c0,2.43,0.328,4.751,0.986,6.966c0.657,2.215,1.644,4.162,2.959,5.84
			c1.314,1.679,2.95,3.01,4.905,3.992c1.954,0.983,4.229,1.473,6.824,1.473c2.559,0,4.789-0.499,6.69-1.5
			c1.901-1,3.475-2.339,4.719-4.019c1.244-1.679,2.168-3.634,2.772-5.867C351.745,97.682,352.048,95.333,352.048,92.868z"/>
		<path fill="#535251" d="M402.91,63.934c4.692,0,8.806,0.769,12.343,2.304c3.536,1.536,6.478,3.617,8.823,6.242
			s4.113,5.689,5.305,9.189c1.19,3.501,1.786,7.234,1.786,11.199c0,3.823-0.622,7.466-1.866,10.931
			c-1.244,3.465-3.065,6.51-5.465,9.135c-2.398,2.625-5.357,4.707-8.876,6.242c-3.52,1.535-7.536,2.305-12.05,2.305
			c-4.621,0-8.717-0.77-12.289-2.305s-6.566-3.607-8.983-6.215s-4.257-5.653-5.518-9.136c-1.263-3.483-1.893-7.171-1.893-11.065
			c0-3.893,0.63-7.59,1.893-11.091c1.261-3.5,3.109-6.563,5.544-9.189s5.438-4.706,9.011-6.242
			C394.247,64.702,398.325,63.934,402.91,63.934z M418.052,92.868c0-2.572-0.312-4.983-0.933-7.233
			c-0.623-2.25-1.556-4.224-2.8-5.921c-1.244-1.696-2.817-3.036-4.718-4.019c-1.902-0.982-4.15-1.474-6.744-1.474
			c-2.56,0-4.808,0.509-6.745,1.527s-3.554,2.394-4.852,4.125c-1.298,1.733-2.284,3.733-2.959,6.001
			c-0.675,2.269-1.013,4.653-1.013,7.153c0,2.43,0.328,4.751,0.986,6.966c0.657,2.215,1.644,4.162,2.959,5.84
			c1.314,1.679,2.95,3.01,4.905,3.992c1.954,0.983,4.229,1.473,6.824,1.473c2.559,0,4.789-0.499,6.69-1.5
			c1.901-1,3.475-2.339,4.719-4.019c1.244-1.679,2.168-3.634,2.772-5.867C417.749,97.682,418.052,95.333,418.052,92.868z"/>
		<path fill="#535251" d="M456.119,41.858v78.39h-12.476v-78.39H456.119z"/>
	</g>
	<g>
		<path fill="#00BAE3" d="M488.454,103.603h-9.936V54.661c0-1.057-0.036-2.342-0.106-3.857c-0.071-1.514-0.136-2.971-0.192-4.371
			l-0.085-2.186c0-0.114-0.008-0.228-0.021-0.343c-0.015-0.114-0.021-0.242-0.021-0.386V42.49h10.277l0.043,3.686
			c1.705-1.6,3.646-2.792,5.82-3.579c2.175-0.785,4.313-1.179,6.418-1.179c3.326,0,6.269,0.607,8.827,1.822s4.712,2.85,6.46,4.907
			c1.749,2.057,3.077,4.451,3.987,7.179c0.909,2.729,1.364,5.607,1.364,8.635c0,3.058-0.426,6-1.279,8.829
			c-0.853,2.828-2.132,5.329-3.838,7.5c-1.705,2.172-3.838,3.907-6.396,5.207s-5.558,1.95-8.997,1.95
			c-2.303,0-4.514-0.386-6.631-1.157c-2.118-0.771-4.016-1.785-5.693-3.043V103.603z M488.369,65.29
			c0,2.029,0.241,3.893,0.725,5.593c0.483,1.7,1.201,3.179,2.153,4.436c0.952,1.257,2.133,2.236,3.54,2.936
			c1.407,0.701,3.021,1.05,4.84,1.05c1.933,0,3.604-0.414,5.011-1.243c1.407-0.828,2.564-1.942,3.475-3.343
			c0.91-1.399,1.585-3.014,2.026-4.843c0.44-1.828,0.66-3.742,0.66-5.743c0-1.886-0.185-3.7-0.554-5.442
			c-0.37-1.743-0.981-3.286-1.834-4.629c-0.853-1.342-1.969-2.414-3.348-3.214c-1.379-0.8-3.091-1.2-5.138-1.2
			c-2.104,0-3.889,0.429-5.353,1.286c-1.464,0.857-2.658,2.008-3.582,3.45c-0.924,1.443-1.592,3.107-2.004,4.993
			S488.369,63.232,488.369,65.29z"/>
		<path fill="#00BAE3" d="M527.856,39.49c0.397-2.229,1.187-4.207,2.366-5.936c1.18-1.729,2.645-3.186,4.393-4.372
			c1.748-1.185,3.731-2.092,5.949-2.721c2.217-0.628,4.548-0.943,6.993-0.943c2.559,0,5.046,0.336,7.463,1.007
			c2.415,0.671,4.569,1.665,6.46,2.979c1.891,1.314,3.404,2.943,4.541,4.885c1.137,1.943,1.706,4.186,1.706,6.729
			c0,1.657-0.228,3.171-0.683,4.543c-0.455,1.371-1.08,2.629-1.876,3.771c-0.796,1.143-1.727,2.179-2.793,3.107
			c-1.066,0.929-2.196,1.778-3.39,2.55c3.24,1.286,5.771,3.122,7.59,5.507c1.819,2.386,2.729,5.322,2.729,8.807
			c0,2.8-0.64,5.314-1.919,7.542s-3,4.122-5.16,5.679c-2.161,1.558-4.662,2.75-7.505,3.578c-2.843,0.829-5.842,1.243-8.998,1.243
			c-2.644,0-5.103-0.3-7.377-0.9c-2.274-0.6-4.25-1.493-5.928-2.679c-1.678-1.185-2.992-2.643-3.944-4.372
			c-0.953-1.728-1.429-3.735-1.429-6.021v-1.329l5.971-6.257c0.198,2.086,0.696,3.936,1.492,5.55
			c0.796,1.614,1.805,2.979,3.027,4.093s2.608,1.957,4.158,2.528c1.549,0.572,3.19,0.857,4.925,0.857
			c1.678,0,3.248-0.229,4.712-0.686c1.464-0.457,2.736-1.1,3.817-1.928c1.08-0.829,1.933-1.843,2.559-3.043
			c0.624-1.2,0.938-2.557,0.938-4.071c0-1.742-0.334-3.229-1.002-4.457c-0.668-1.228-1.628-2.229-2.878-3
			c-1.252-0.771-2.772-1.335-4.563-1.693c-1.791-0.357-3.81-0.536-6.055-0.536c-0.512,0-1.23,0-2.154,0s-1.841,0.029-2.75,0.086
			l-0.213-8.486c0.369,0,0.788,0.007,1.258,0.021c0.469,0.015,0.923,0.021,1.364,0.021c0.44,0,0.832,0,1.173,0s0.555,0,0.64,0
			c2.16,0,4.072-0.171,5.735-0.514s3.056-0.907,4.179-1.693c1.123-0.786,1.976-1.835,2.559-3.15
			c0.583-1.314,0.875-2.957,0.875-4.929c0-1.142-0.235-2.149-0.704-3.021c-0.469-0.871-1.123-1.592-1.962-2.165
			c-0.839-0.571-1.833-1-2.984-1.286c-1.151-0.285-2.396-0.428-3.731-0.428c-2.758,0-5.21,0.786-7.356,2.357
			c-2.146,1.572-3.845,4.114-5.096,7.628L527.856,39.49z"/>
	</g>
</g>
</svg>
